<?xml version="1.0" standalone="no"?>
<!DOCTYPE svg PUBLIC "-//W3C//DTD SVG 20010904//EN"
 "http://www.w3.org/TR/2001/REC-SVG-20010904/DTD/svg10.dtd">
<svg version="1.0" xmlns="http://www.w3.org/2000/svg"
 width="912.000000pt" height="777.000000pt" viewBox="0 0 912.000000 777.000000"
 preserveAspectRatio="xMidYMid meet">

<g transform="translate(0.000000,777.000000) scale(0.100000,-0.100000)"
fill="#000000" stroke="none">
<path d="M4455 7064 c-1489 -68 -2718 -1149 -2964 -2609 -35 -208 -44 -345
-38 -600 6 -255 22 -396 72 -617 148 -661 515 -1263 1040 -1704 593 -499 1329
-754 2105 -731 482 15 887 116 1310 328 491 246 896 602 1198 1052 298 444
469 922 522 1456 13 133 13 459 0 592 -146 1475 -1293 2644 -2760 2813 -132
15 -368 25 -485 20z m470 -69 c543 -62 1072 -271 1489 -585 18 -14 48 -36 67
-50 69 -52 207 -177 308 -279 433 -442 727 -1021 830 -1636 63 -375 53 -803
-29 -1178 -84 -384 -259 -781 -488 -1107 -197 -280 -484 -564 -767 -761 -687
-479 -1565 -657 -2388 -483 -1084 229 -1961 1019 -2300 2070 -53 164 -91 327
-118 509 -26 168 -36 522 -20 701 73 831 464 1575 1106 2110 477 396 1040 629
1685 697 102 11 506 6 625 -8z"/>
<path d="M4433 5493 c-72 -60 -173 -143 -224 -185 l-94 -77 -337 -1 c-292 0
-339 -2 -352 -16 -14 -13 -16 -54 -16 -289 l0 -273 -219 -178 c-120 -99 -224
-189 -230 -202 -8 -16 -11 -277 -11 -892 0 -776 2 -870 16 -884 14 -14 174
-16 1608 -16 1225 0 1595 3 1604 12 9 9 12 222 12 898 l0 886 -62 55 c-35 30
-124 104 -198 163 -74 60 -147 120 -162 134 l-28 26 0 266 c0 224 -2 269 -16
288 -15 22 -15 22 -352 22 l-337 0 -80 66 c-44 36 -89 74 -100 83 -169 140
-274 221 -286 221 -3 0 -64 -48 -136 -107z m192 -39 c21 -20 90 -77 153 -127
l114 -92 -161 -3 c-89 -1 -233 -1 -320 0 l-159 3 156 128 c86 70 161 127 167
127 5 0 28 -16 50 -36z m1023 -936 l-3 -622 -85 -69 c-47 -38 -108 -88 -136
-111 -28 -22 -122 -99 -209 -171 -86 -71 -173 -143 -194 -160 -20 -16 -127
-105 -239 -197 -112 -93 -206 -168 -210 -168 -4 0 -47 35 -97 76 -49 42 -121
102 -160 132 -68 55 -86 70 -149 123 -17 14 -80 66 -141 114 -60 49 -126 102
-146 119 -19 17 -80 67 -134 111 -54 44 -117 96 -140 115 -22 19 -58 48 -78
64 l-37 30 0 618 0 618 1080 0 1080 0 -2 -622z m-2242 -536 c-3 -2 -56 38
-118 90 -62 51 -136 111 -165 133 -29 22 -52 44 -53 48 0 10 17 25 199 173
l136 111 3 -275 c1 -151 0 -277 -2 -280z m2365 531 c12 -14 83 -73 233 -193
17 -13 41 -34 53 -45 l23 -20 -63 -50 c-34 -28 -102 -84 -152 -125 -49 -41
-98 -81 -107 -89 -17 -13 -18 1 -18 263 0 152 4 276 9 276 5 0 15 -8 22 -17z
m-2626 -432 c44 -36 89 -74 100 -83 54 -46 226 -187 265 -218 24 -19 101 -82
171 -140 70 -58 157 -130 194 -160 94 -77 105 -87 105 -92 0 -3 -41 -38 -92
-79 -50 -41 -138 -112 -194 -159 -198 -166 -625 -514 -641 -524 -10 -6 -13
150 -13 764 0 614 3 770 13 764 6 -4 48 -37 92 -73z m2964 -703 c1 -411 -3
-749 -7 -752 -5 -3 -60 38 -123 90 -63 52 -161 134 -219 182 -58 48 -157 129
-220 181 -134 108 -187 153 -245 201 -23 19 -62 52 -88 73 l-46 39 136 111
c75 62 168 139 208 172 40 33 143 119 230 190 87 72 204 167 259 213 86 71
101 81 107 65 4 -10 8 -354 8 -765z m-1943 -140 c324 -271 384 -318 405 -318
12 0 96 65 255 199 18 14 62 51 99 81 38 30 88 72 112 93 24 20 47 37 51 37 6
0 118 -88 182 -144 14 -11 99 -82 190 -155 91 -74 167 -137 170 -141 3 -3 28
-24 55 -45 28 -22 52 -42 55 -45 3 -3 27 -24 55 -45 27 -22 56 -46 64 -53 8
-7 44 -38 82 -68 37 -29 71 -58 74 -64 4 -7 -471 -10 -1444 -10 -798 0 -1451
2 -1451 4 0 3 75 67 168 142 275 227 428 353 596 492 88 73 162 132 166 132 3
0 55 -42 116 -92z"/>
<path d="M3823 4855 c-27 -19 -29 -38 -7 -59 13 -14 53 -16 283 -16 281 0 291
2 291 45 0 38 -34 43 -296 44 -213 1 -252 -1 -271 -14z"/>
<path d="M4578 4863 c-27 -7 -35 -53 -13 -70 27 -19 733 -19 760 0 24 18 14
62 -17 71 -25 6 -702 5 -730 -1z"/>
<path d="M3810 4545 c-10 -12 -10 -21 -2 -40 l12 -25 392 0 c216 0 399 4 406
9 8 5 12 21 10 37 l-3 29 -401 3 c-351 2 -403 0 -414 -13z"/>
<path d="M4802 4548 c-16 -16 -15 -43 2 -57 9 -8 88 -11 266 -9 228 3 254 5
264 21 8 12 8 22 0 35 -10 15 -36 17 -265 20 -190 2 -258 -1 -267 -10z"/>
<path d="M3816 4244 c-19 -19 -20 -36 -4 -52 17 -17 429 -17 446 0 18 18 14
46 -7 58 -12 6 -101 10 -220 10 -168 0 -202 -2 -215 -16z"/>
<path d="M4442 4248 c-16 -16 -15 -43 2 -57 9 -8 135 -10 446 -9 400 3 434 4
444 21 8 12 8 22 0 35 -10 16 -44 17 -445 20 -330 2 -438 -1 -447 -10z"/>
<path d="M3817 3942 c-21 -23 -21 -36 -1 -56 13 -14 66 -16 425 -16 264 0 417
4 430 10 11 6 19 21 19 35 0 14 -8 29 -19 35 -13 6 -166 10 -429 10 -383 0
-410 -1 -425 -18z"/>
<path d="M4866 3944 c-9 -8 -16 -22 -16 -29 0 -7 7 -21 16 -29 13 -14 48 -16
225 -16 126 0 218 4 230 10 11 6 19 21 19 35 0 14 -8 29 -19 35 -12 6 -104 10
-230 10 -177 0 -212 -2 -225 -16z"/>
<path d="M4137 3643 c-13 -13 -7 -61 9 -67 9 -3 204 -6 435 -6 l419 0 12 25
c8 19 8 28 -2 40 -11 13 -68 15 -440 15 -234 0 -430 -3 -433 -7z"/>
<path d="M2976 5125 c-3 -9 -6 -34 -6 -56 l0 -39 -42 0 c-56 0 -70 -11 -66
-46 3 -27 6 -29 56 -32 l52 -3 0 -44 c0 -26 6 -50 16 -59 35 -36 64 -10 64 56
l0 48 48 0 c51 0 72 12 72 42 0 23 -30 38 -79 38 l-40 0 -3 53 c-3 50 -4 52
-34 55 -22 2 -33 -2 -38 -13z"/>
<path d="M6499 4513 c-14 -37 -6 -153 12 -164 44 -28 60 2 57 103 -3 82 -3 83
-30 86 -23 3 -30 -2 -39 -25z"/>
<path d="M6503 4178 c-4 -7 -9 -151 -10 -321 -3 -296 -2 -308 17 -327 16 -16
25 -18 40 -10 20 11 20 20 18 338 l-3 327 -27 3 c-14 2 -30 -3 -35 -10z"/>
<path d="M4327 2333 c-4 -3 -7 -28 -7 -54 l0 -48 -51 -3 c-94 -5 -96 -69 -3
-78 l49 -5 3 -45 c4 -47 16 -70 38 -70 26 0 44 31 44 76 l0 44 50 0 c45 0 50
2 56 27 9 34 -16 53 -68 53 -37 0 -38 1 -38 36 0 19 -5 44 -10 55 -10 18 -50
26 -63 12z"/>
<path d="M3147 2232 c-24 -27 -21 -59 8 -78 23 -15 27 -15 50 0 29 19 33 56 9
80 -21 21 -47 20 -67 -2z"/>
<path d="M3480 2230 c-11 -11 -20 -27 -20 -35 0 -8 9 -24 20 -35 11 -11 27
-20 35 -20 8 0 24 9 35 20 11 11 20 27 20 35 0 8 -9 24 -20 35 -11 11 -27 20
-35 20 -8 0 -24 -9 -35 -20z"/>
<path d="M3817 2232 c-24 -27 -21 -59 8 -78 39 -26 75 -6 75 40 0 52 -50 75
-83 38z"/>
</g>
</svg>
