<?xml version="1.0" standalone="no"?>
<!DOCTYPE svg PUBLIC "-//W3C//DTD SVG 20010904//EN"
        "http://www.w3.org/TR/2001/REC-SVG-20010904/DTD/svg10.dtd">
<svg version="1.0" xmlns="http://www.w3.org/2000/svg"
     width="977.000000pt" height="245.000000pt" viewBox="0 0 977.000000 245.000000"
     preserveAspectRatio="xMidYMid meet">

    <g transform="translate(0.000000,245.000000) scale(0.100000,-0.100000)"
       fill="#000000" stroke="none">
        <path d="M2845 2250 c-423 -66 -764 -371 -875 -785 -31 -113 -38 -329 -16
-446 90 -476 457 -815 940 -870 174 -19 374 13 541 86 158 70 345 227 445 375
175 258 227 607 133 904 -109 349 -396 621 -752 713 -108 27 -312 39 -416 23z
m326 -35 c220 -38 411 -139 565 -297 130 -133 211 -275 262 -456 24 -87 27
-113 26 -262 0 -206 -20 -294 -105 -464 -248 -492 -855 -701 -1355 -467 -118
56 -197 112 -300 215 -146 147 -233 310 -276 516 -29 138 -22 348 16 475 85
286 258 499 520 639 187 100 433 139 647 101z"/>
        <path d="M2512 1960 c-70 -43 -80 -136 -20 -192 25 -23 39 -28 80 -28 44 0 54
4 84 34 19 19 34 45 35 58 4 72 -14 108 -66 132 -44 21 -73 20 -113 -4z"/>
        <path d="M2520 1169 l0 -469 55 0 55 0 -2 467 -3 467 -52 2 -53 2 0 -469z"/>
        <path d="M2765 1632 c-3 -3 -5 -214 -5 -469 l0 -463 60 0 60 0 2 357 3 357
258 -357 258 -357 54 0 54 0 -2 467 -2 468 -57 1 -58 2 -2 -361 -3 -362 -262
361 -263 361 -45 0 c-24 0 -47 -2 -50 -5z"/>
        <path d="M4552 1634 c-99 -26 -175 -82 -237 -174 -62 -92 -87 -174 -88 -285
-1 -255 149 -449 379 -488 80 -14 197 7 283 50 l56 28 3 77 3 78 -46 -31
c-202 -136 -431 -88 -524 111 -23 49 -26 68 -26 165 0 98 3 116 26 165 37 79
81 125 155 161 60 30 69 31 152 27 76 -3 99 -9 168 -42 43 -20 81 -38 84 -39
2 -1 6 28 8 65 l3 67 -50 26 c-104 52 -243 68 -349 39z"/>
        <path d="M8277 1640 c-108 -28 -217 -117 -274 -226 -157 -297 -1 -669 305
-726 153 -29 330 59 416 206 94 160 94 383 1 541 -40 67 -120 141 -189 175
-51 26 -79 32 -142 36 -44 2 -96 -1 -117 -6z m211 -146 c62 -31 115 -88 151
-164 23 -49 26 -67 26 -165 0 -92 -4 -118 -22 -158 -71 -153 -211 -225 -358
-182 -46 13 -70 28 -115 73 -77 78 -103 145 -103 267 0 112 25 182 89 254 91
101 221 131 332 75z"/>
        <path d="M5082 1281 c3 -355 3 -356 27 -406 33 -67 100 -131 169 -163 48 -22
71 -26 147 -26 76 -1 98 3 145 25 80 37 125 81 162 157 l33 67 0 350 0 350
-24 3 c-13 2 -38 1 -56 -2 l-33 -6 -1 -331 c-1 -182 -6 -341 -11 -354 -15 -38
-73 -97 -115 -116 -83 -38 -201 -18 -267 45 -62 60 -63 60 -68 426 l-5 335
-53 1 -53 2 3 -357z"/>
        <path d="M5948 1635 c-5 -5 -8 -217 -8 -472 l0 -463 170 0 c146 0 177 3 224
20 100 38 151 119 150 240 -1 100 -51 182 -135 219 l-40 18 35 22 c48 30 76
92 76 167 0 80 -15 127 -53 171 -53 60 -98 74 -265 80 -81 3 -150 2 -154 -2z
m301 -140 c49 -25 67 -123 35 -190 -21 -44 -68 -65 -160 -72 l-74 -6 0 142 0
141 85 0 c56 0 96 -5 114 -15z m23 -395 c20 -6 48 -24 62 -41 22 -25 26 -41
26 -90 0 -118 -44 -149 -210 -149 l-100 0 0 145 0 145 93 0 c50 0 109 -5 129
-10z"/>
        <path d="M6862 1632 c-9 -6 -310 -796 -346 -910 -7 -21 -4 -22 51 -22 l58 0
49 135 49 135 173 0 173 0 20 -54 c11 -29 34 -90 51 -135 l31 -81 60 0 59 0
-15 38 c-8 20 -86 227 -174 460 -87 233 -161 425 -163 427 -10 9 -65 14 -76 7z
m99 -379 c28 -76 51 -142 52 -147 1 -4 -52 -8 -118 -7 -66 0 -119 4 -118 8 1
7 83 235 105 293 12 33 15 28 79 -147z"/>
        <path d="M7190 1575 l0 -65 145 0 145 0 0 -405 0 -405 59 0 60 0 0 403 1 402
145 3 145 3 0 64 0 64 -350 1 -350 0 0 -65z"/>
        <path d="M8933 1634 c-10 -4 -13 -108 -13 -470 l0 -464 60 0 60 0 0 211 0 212
41 -6 c82 -11 109 -42 249 -290 l72 -127 68 0 69 0 -36 63 c-19 34 -65 114
-100 177 -36 63 -79 135 -97 160 l-33 45 44 28 c33 20 50 41 70 83 22 49 25
66 21 138 -7 124 -52 192 -148 225 -37 13 -306 25 -327 15z m280 -125 c57 -16
79 -57 75 -141 -5 -103 -50 -138 -178 -138 l-70 0 0 145 0 145 68 0 c37 0 84
-5 105 -11z"/>
        <path d="M320 1165 l0 -465 70 0 70 0 0 465 0 465 -70 0 -70 0 0 -465z"/>
        <path d="M580 1570 l0 -60 175 0 175 0 0 -405 0 -405 65 0 65 0 0 405 0 405
175 0 175 0 0 60 0 60 -415 0 -415 0 0 -60z"/>
        <path d="M1561 1253 c-111 -21 -137 -170 -41 -227 65 -38 153 -4 179 70 13 38
13 44 -8 87 -17 35 -31 49 -62 61 -22 9 -40 15 -42 15 -1 -1 -13 -4 -26 -6z"/>
    </g>
</svg>
